<?xml version="1.0" encoding="UTF-8" standalone="no"?><svg xmlns="http://www.w3.org/2000/svg" xmlns:xlink="http://www.w3.org/1999/xlink" contentScriptType="application/ecmascript" contentStyleType="text/css" height="445px" preserveAspectRatio="none" style="width:1232px;height:445px;" version="1.1" viewBox="0 0 1232 445" width="1232px" zoomAndPan="magnify"><defs><filter height="300%" id="f1bxw06v2jk675" width="300%" x="-1" y="-1"><feGaussianBlur result="blurOut" stdDeviation="2.0"/><feColorMatrix in="blurOut" result="blurOut2" type="matrix" values="0 0 0 0 0 0 0 0 0 0 0 0 0 0 0 0 0 0 .4 0"/><feOffset dx="4.0" dy="4.0" in="blurOut2" result="blurOut3"/><feBlend in="SourceGraphic" in2="blurOut3" mode="normal"/></filter></defs><g><text fill="#000000" font-family="sans-serif" font-size="18" lengthAdjust="spacingAndGlyphs" textLength="212" x="513.5" y="20.6279">Abastract Factory Diagram</text><!--class IQuest--><rect fill="#FEFECE" filter="url(#f1bxw06v2jk675)" height="48" id="IQuest" style="stroke: #A80036; stroke-width: 1.5;" width="68" x="479.498" y="371.583"/><ellipse cx="494.498" cy="387.583" fill="#B4A7E5" rx="11" ry="11" style="stroke: #A80036; stroke-width: 1.0;"/><path d="M491.0918,381.8643 L491.0918,381.458 L497.4043,381.458 L497.4043,381.8643 L494.873,381.8643 Q494.873,381.8643 495.0214,381.9971 Q495.1699,382.1299 495.1699,382.3955 L495.1699,391.8799 Q495.1699,392.1455 495.3886,392.2783 Q495.6074,392.4111 495.6074,392.4111 L497.4043,392.4111 L497.4043,392.8174 L491.0918,392.8174 L491.0918,392.4111 L492.623,392.4111 Q492.9511,392.4111 493.0839,392.2783 Q493.2168,392.1455 493.2168,391.8799 L493.2168,382.3955 Q493.2168,382.1299 493.0839,381.9971 Q492.9511,381.8643 492.623,381.8643 L491.0918,381.8643 Z "/><text fill="#000000" font-family="sans-serif" font-size="12" font-style="italic" lengthAdjust="spacingAndGlyphs" textLength="36" x="508.498" y="393.1406">IQuest</text><line style="stroke: #A80036; stroke-width: 1.5;" x1="480.498" x2="546.498" y1="403.583" y2="403.583"/><line style="stroke: #A80036; stroke-width: 1.5;" x1="480.498" x2="546.498" y1="411.583" y2="411.583"/><!--class IQuestFactory--><rect fill="#FEFECE" filter="url(#f1bxw06v2jk675)" height="48" id="IQuestFactory" style="stroke: #A80036; stroke-width: 1.5;" width="108" x="223.498" y="140.583"/><ellipse cx="238.498" cy="156.583" fill="#B4A7E5" rx="11" ry="11" style="stroke: #A80036; stroke-width: 1.0;"/><path d="M235.0918,150.8643 L235.0918,150.458 L241.4043,150.458 L241.4043,150.8643 L238.873,150.8643 Q238.873,150.8643 239.0214,150.9971 Q239.1699,151.1299 239.1699,151.3955 L239.1699,160.8799 Q239.1699,161.1455 239.3886,161.2783 Q239.6074,161.4111 239.6074,161.4111 L241.4043,161.4111 L241.4043,161.8174 L235.0918,161.8174 L235.0918,161.4111 L236.623,161.4111 Q236.9511,161.4111 237.0839,161.2783 Q237.2168,161.1455 237.2168,160.8799 L237.2168,151.3955 Q237.2168,151.1299 237.0839,150.9971 Q236.9511,150.8643 236.623,150.8643 L235.0918,150.8643 Z "/><text fill="#000000" font-family="sans-serif" font-size="12" font-style="italic" lengthAdjust="spacingAndGlyphs" textLength="76" x="252.498" y="162.1406">IQuestFactory</text><line style="stroke: #A80036; stroke-width: 1.5;" x1="224.498" x2="330.498" y1="172.583" y2="172.583"/><line style="stroke: #A80036; stroke-width: 1.5;" x1="224.498" x2="330.498" y1="180.583" y2="180.583"/><!--class Quest--><rect fill="#FEFECE" filter="url(#f1bxw06v2jk675)" height="48" id="Quest" style="stroke: #A80036; stroke-width: 1.5;" width="64" x="525.498" y="248.583"/><ellipse cx="540.498" cy="264.583" fill="#A9DCDF" rx="11" ry="11" style="stroke: #A80036; stroke-width: 1.0;"/><path d="M540.873,264.5674 L538.8886,264.5674 L538.2949,267.083 Q538.2324,267.4268 538.2324,267.6143 Q538.2324,267.8799 538.3261,268.1455 Q538.4199,268.4111 538.4199,268.4111 L539.0918,268.4111 L539.0918,268.8174 L535.6386,268.8174 L535.6386,268.4111 L535.8261,268.4111 Q536.0918,268.4111 536.2949,268.2471 Q536.498,268.083 536.5605,267.6924 L539.1543,257.5205 L541.0293,256.9111 L543.6699,267.6924 Q543.8105,268.083 544.0058,268.2471 Q544.2011,268.4111 544.2011,268.4111 L544.6699,268.4111 L544.6699,268.8174 L540.8105,268.8174 L540.8105,268.4111 L541.0761,268.4111 Q541.4824,268.4111 541.5449,268.2471 Q541.6074,268.083 541.6074,267.958 Q541.6074,267.6924 541.5449,267.4893 L540.873,264.5674 Z M539.4824,258.6611 L539.4824,258.6611 L539.0293,264.1611 L540.8105,264.1611 L539.4824,258.6611 Z "/><text fill="#000000" font-family="sans-serif" font-size="12" font-style="italic" lengthAdjust="spacingAndGlyphs" textLength="32" x="554.498" y="270.1406">Quest</text><line style="stroke: #A80036; stroke-width: 1.5;" x1="526.498" x2="588.498" y1="280.583" y2="280.583"/><line style="stroke: #A80036; stroke-width: 1.5;" x1="526.498" x2="588.498" y1="288.583" y2="288.583"/><!--class KillGoblin--><rect fill="#FEFECE" filter="url(#f1bxw06v2jk675)" height="48" id="KillGoblin" style="stroke: #A80036; stroke-width: 1.5;" width="85" x="31.998" y="140.583"/><ellipse cx="46.998" cy="156.583" fill="#ADD1B2" rx="11" ry="11" style="stroke: #A80036; stroke-width: 1.0;"/><path d="M45.5761,161.9424 Q43.7168,161.9424 42.623,160.5518 Q41.5293,159.1611 41.5293,156.1768 Q41.5293,153.6455 42.6933,151.9893 Q43.8574,150.333 45.8418,150.333 Q47.3105,150.333 47.7793,150.458 Q48.248,150.6611 48.248,150.6611 Q48.248,150.6611 48.248,150.5908 Q48.248,150.5205 48.8574,149.5986 L49.9043,153.2549 L48.5761,153.6611 Q48.1074,152.1143 47.4433,151.4502 Q46.7793,150.7861 45.7168,150.7861 Q45.3261,150.7861 44.5605,152.3174 Q43.7949,153.8486 43.7949,156.0986 Q43.7949,158.5674 44.4589,159.958 Q45.123,161.3486 45.6543,161.3486 Q46.7168,161.3486 47.4746,160.583 Q48.2324,159.8174 48.5761,158.1611 L49.9043,158.7549 Q49.5761,160.1611 48.6777,161.0518 Q47.7793,161.9424 45.5761,161.9424 Z "/><text fill="#000000" font-family="sans-serif" font-size="12" lengthAdjust="spacingAndGlyphs" textLength="53" x="60.998" y="162.1406">KillGoblin</text><line style="stroke: #A80036; stroke-width: 1.5;" x1="32.998" x2="115.998" y1="172.583" y2="172.583"/><line style="stroke: #A80036; stroke-width: 1.5;" x1="32.998" x2="115.998" y1="180.583" y2="180.583"/><!--class DeliverGoods--><rect fill="#FEFECE" filter="url(#f1bxw06v2jk675)" height="48" id="DeliverGoods" style="stroke: #A80036; stroke-width: 1.5;" width="107" x="366.998" y="140.583"/><ellipse cx="381.998" cy="156.583" fill="#ADD1B2" rx="11" ry="11" style="stroke: #A80036; stroke-width: 1.0;"/><path d="M380.5761,161.9424 Q378.7168,161.9424 377.623,160.5518 Q376.5293,159.1611 376.5293,156.1768 Q376.5293,153.6455 377.6933,151.9893 Q378.8574,150.333 380.8418,150.333 Q382.3105,150.333 382.7793,150.458 Q383.248,150.6611 383.248,150.6611 Q383.248,150.6611 383.248,150.5908 Q383.248,150.5205 383.8574,149.5986 L384.9043,153.2549 L383.5761,153.6611 Q383.1074,152.1143 382.4433,151.4502 Q381.7793,150.7861 380.7168,150.7861 Q380.3261,150.7861 379.5605,152.3174 Q378.7949,153.8486 378.7949,156.0986 Q378.7949,158.5674 379.4589,159.958 Q380.123,161.3486 380.6543,161.3486 Q381.7168,161.3486 382.4746,160.583 Q383.2324,159.8174 383.5761,158.1611 L384.9043,158.7549 Q384.5761,160.1611 383.6777,161.0518 Q382.7793,161.9424 380.5761,161.9424 Z "/><text fill="#000000" font-family="sans-serif" font-size="12" lengthAdjust="spacingAndGlyphs" textLength="75" x="395.998" y="162.1406">DeliverGoods</text><line style="stroke: #A80036; stroke-width: 1.5;" x1="367.998" x2="472.998" y1="172.583" y2="172.583"/><line style="stroke: #A80036; stroke-width: 1.5;" x1="367.998" x2="472.998" y1="180.583" y2="180.583"/><!--class SearchRing--><rect fill="#FEFECE" filter="url(#f1bxw06v2jk675)" height="48" id="SearchRing" style="stroke: #A80036; stroke-width: 1.5;" width="97" x="508.998" y="140.583"/><ellipse cx="523.998" cy="156.583" fill="#ADD1B2" rx="11" ry="11" style="stroke: #A80036; stroke-width: 1.0;"/><path d="M522.5761,161.9424 Q520.7168,161.9424 519.623,160.5518 Q518.5293,159.1611 518.5293,156.1768 Q518.5293,153.6455 519.6933,151.9893 Q520.8574,150.333 522.8418,150.333 Q524.3105,150.333 524.7793,150.458 Q525.248,150.6611 525.248,150.6611 Q525.248,150.6611 525.248,150.5908 Q525.248,150.5205 525.8574,149.5986 L526.9043,153.2549 L525.5761,153.6611 Q525.1074,152.1143 524.4433,151.4502 Q523.7793,150.7861 522.7168,150.7861 Q522.3261,150.7861 521.5605,152.3174 Q520.7949,153.8486 520.7949,156.0986 Q520.7949,158.5674 521.4589,159.958 Q522.123,161.3486 522.6543,161.3486 Q523.7168,161.3486 524.4746,160.583 Q525.2324,159.8174 525.5761,158.1611 L526.9043,158.7549 Q526.5761,160.1611 525.6777,161.0518 Q524.7793,161.9424 522.5761,161.9424 Z "/><text fill="#000000" font-family="sans-serif" font-size="12" lengthAdjust="spacingAndGlyphs" textLength="65" x="537.998" y="162.1406">SearchRing</text><line style="stroke: #A80036; stroke-width: 1.5;" x1="509.998" x2="604.998" y1="172.583" y2="172.583"/><line style="stroke: #A80036; stroke-width: 1.5;" x1="509.998" x2="604.998" y1="180.583" y2="180.583"/><!--class KillGoblinFactory--><rect fill="#FEFECE" filter="url(#f1bxw06v2jk675)" height="48" id="KillGoblinFactory" style="stroke: #A80036; stroke-width: 1.5;" width="124" x="12.4981" y="32.583"/><ellipse cx="27.4981" cy="48.583" fill="#ADD1B2" rx="11" ry="11" style="stroke: #A80036; stroke-width: 1.0;"/><path d="M26.0762,53.9424 Q24.2168,53.9424 23.1231,52.5518 Q22.0293,51.1611 22.0293,48.1768 Q22.0293,45.6455 23.1934,43.9893 Q24.3574,42.333 26.3418,42.333 Q27.8106,42.333 28.2793,42.458 Q28.7481,42.6611 28.7481,42.6611 Q28.7481,42.6611 28.7481,42.5908 Q28.7481,42.5205 29.3574,41.5986 L30.4043,45.2549 L29.0762,45.6611 Q28.6074,44.1143 27.9434,43.4502 Q27.2793,42.7861 26.2168,42.7861 Q25.8262,42.7861 25.0606,44.3174 Q24.2949,45.8486 24.2949,48.0986 Q24.2949,50.5674 24.959,51.958 Q25.6231,53.3486 26.1543,53.3486 Q27.2168,53.3486 27.9746,52.583 Q28.7324,51.8174 29.0762,50.1611 L30.4043,50.7549 Q30.0762,52.1611 29.1777,53.0518 Q28.2793,53.9424 26.0762,53.9424 Z "/><text fill="#000000" font-family="sans-serif" font-size="12" lengthAdjust="spacingAndGlyphs" textLength="92" x="41.4981" y="54.1406">KillGoblinFactory</text><line style="stroke: #A80036; stroke-width: 1.5;" x1="13.4981" x2="135.4981" y1="64.583" y2="64.583"/><line style="stroke: #A80036; stroke-width: 1.5;" x1="13.4981" x2="135.4981" y1="72.583" y2="72.583"/><!--class DeliverGoodsFactory--><rect fill="#FEFECE" filter="url(#f1bxw06v2jk675)" height="48" id="DeliverGoodsFactory" style="stroke: #A80036; stroke-width: 1.5;" width="146" x="204.498" y="32.583"/><ellipse cx="219.498" cy="48.583" fill="#ADD1B2" rx="11" ry="11" style="stroke: #A80036; stroke-width: 1.0;"/><path d="M218.0761,53.9424 Q216.2168,53.9424 215.123,52.5518 Q214.0293,51.1611 214.0293,48.1768 Q214.0293,45.6455 215.1933,43.9893 Q216.3574,42.333 218.3418,42.333 Q219.8105,42.333 220.2793,42.458 Q220.748,42.6611 220.748,42.6611 Q220.748,42.6611 220.748,42.5908 Q220.748,42.5205 221.3574,41.5986 L222.4043,45.2549 L221.0761,45.6611 Q220.6074,44.1143 219.9433,43.4502 Q219.2793,42.7861 218.2168,42.7861 Q217.8261,42.7861 217.0605,44.3174 Q216.2949,45.8486 216.2949,48.0986 Q216.2949,50.5674 216.9589,51.958 Q217.623,53.3486 218.1543,53.3486 Q219.2168,53.3486 219.9746,52.583 Q220.7324,51.8174 221.0761,50.1611 L222.4043,50.7549 Q222.0761,52.1611 221.1777,53.0518 Q220.2793,53.9424 218.0761,53.9424 Z "/><text fill="#000000" font-family="sans-serif" font-size="12" lengthAdjust="spacingAndGlyphs" textLength="114" x="233.498" y="54.1406">DeliverGoodsFactory</text><line style="stroke: #A80036; stroke-width: 1.5;" x1="205.498" x2="349.498" y1="64.583" y2="64.583"/><line style="stroke: #A80036; stroke-width: 1.5;" x1="205.498" x2="349.498" y1="72.583" y2="72.583"/><!--class SearchRingFactory--><rect fill="#FEFECE" filter="url(#f1bxw06v2jk675)" height="48" id="SearchRingFactory" style="stroke: #A80036; stroke-width: 1.5;" width="136" x="489.498" y="32.583"/><ellipse cx="504.498" cy="48.583" fill="#ADD1B2" rx="11" ry="11" style="stroke: #A80036; stroke-width: 1.0;"/><path d="M503.0761,53.9424 Q501.2168,53.9424 500.123,52.5518 Q499.0293,51.1611 499.0293,48.1768 Q499.0293,45.6455 500.1933,43.9893 Q501.3574,42.333 503.3418,42.333 Q504.8105,42.333 505.2793,42.458 Q505.748,42.6611 505.748,42.6611 Q505.748,42.6611 505.748,42.5908 Q505.748,42.5205 506.3574,41.5986 L507.4043,45.2549 L506.0761,45.6611 Q505.6074,44.1143 504.9433,43.4502 Q504.2793,42.7861 503.2168,42.7861 Q502.8261,42.7861 502.0605,44.3174 Q501.2949,45.8486 501.2949,48.0986 Q501.2949,50.5674 501.9589,51.958 Q502.623,53.3486 503.1543,53.3486 Q504.2168,53.3486 504.9746,52.583 Q505.7324,51.8174 506.0761,50.1611 L507.4043,50.7549 Q507.0761,52.1611 506.1777,53.0518 Q505.2793,53.9424 503.0761,53.9424 Z "/><text fill="#000000" font-family="sans-serif" font-size="12" lengthAdjust="spacingAndGlyphs" textLength="104" x="518.498" y="54.1406">SearchRingFactory</text><line style="stroke: #A80036; stroke-width: 1.5;" x1="490.498" x2="624.498" y1="64.583" y2="64.583"/><line style="stroke: #A80036; stroke-width: 1.5;" x1="490.498" x2="624.498" y1="72.583" y2="72.583"/><!--class IEquipmentFactory--><rect fill="#FEFECE" filter="url(#f1bxw06v2jk675)" height="78.0459" id="IEquipmentFactory" style="stroke: #A80036; stroke-width: 1.5;" width="136" x="582.498" y="356.583"/><ellipse cx="597.498" cy="372.583" fill="#B4A7E5" rx="11" ry="11" style="stroke: #A80036; stroke-width: 1.0;"/><path d="M594.0918,366.8643 L594.0918,366.458 L600.4043,366.458 L600.4043,366.8643 L597.873,366.8643 Q597.873,366.8643 598.0214,366.9971 Q598.1699,367.1299 598.1699,367.3955 L598.1699,376.8799 Q598.1699,377.1455 598.3886,377.2783 Q598.6074,377.4111 598.6074,377.4111 L600.4043,377.4111 L600.4043,377.8174 L594.0918,377.8174 L594.0918,377.4111 L595.623,377.4111 Q595.9511,377.4111 596.0839,377.2783 Q596.2168,377.1455 596.2168,376.8799 L596.2168,367.3955 Q596.2168,367.1299 596.0839,366.9971 Q595.9511,366.8643 595.623,366.8643 L594.0918,366.8643 Z "/><text fill="#000000" font-family="sans-serif" font-size="12" font-style="italic" lengthAdjust="spacingAndGlyphs" textLength="104" x="611.498" y="378.1406">IEquipmentFactory</text><line style="stroke: #A80036; stroke-width: 1.5;" x1="583.498" x2="717.498" y1="388.583" y2="388.583"/><line style="stroke: #A80036; stroke-width: 1.5;" x1="583.498" x2="717.498" y1="396.583" y2="396.583"/><text fill="#000000" font-family="sans-serif" font-size="11" lengthAdjust="spacingAndGlyphs" textLength="80" x="588.498" y="413.189">CreateWeapon()</text><text fill="#000000" font-family="sans-serif" font-size="11" lengthAdjust="spacingAndGlyphs" textLength="59" x="588.498" y="428.2119">CreateItem()</text><!--class IWeapon--><rect fill="#FEFECE" filter="url(#f1bxw06v2jk675)" height="48" id="IWeapon" style="stroke: #A80036; stroke-width: 1.5;" width="82" x="835.498" y="371.583"/><ellipse cx="850.498" cy="387.583" fill="#B4A7E5" rx="11" ry="11" style="stroke: #A80036; stroke-width: 1.0;"/><path d="M847.0918,381.8643 L847.0918,381.458 L853.4043,381.458 L853.4043,381.8643 L850.873,381.8643 Q850.873,381.8643 851.0214,381.9971 Q851.1699,382.1299 851.1699,382.3955 L851.1699,391.8799 Q851.1699,392.1455 851.3886,392.2783 Q851.6074,392.4111 851.6074,392.4111 L853.4043,392.4111 L853.4043,392.8174 L847.0918,392.8174 L847.0918,392.4111 L848.623,392.4111 Q848.9511,392.4111 849.0839,392.2783 Q849.2168,392.1455 849.2168,391.8799 L849.2168,382.3955 Q849.2168,382.1299 849.0839,381.9971 Q848.9511,381.8643 848.623,381.8643 L847.0918,381.8643 Z "/><text fill="#000000" font-family="sans-serif" font-size="12" font-style="italic" lengthAdjust="spacingAndGlyphs" textLength="50" x="864.498" y="393.1406">IWeapon</text><line style="stroke: #A80036; stroke-width: 1.5;" x1="836.498" x2="916.498" y1="403.583" y2="403.583"/><line style="stroke: #A80036; stroke-width: 1.5;" x1="836.498" x2="916.498" y1="411.583" y2="411.583"/><!--class IItem--><rect fill="#FEFECE" filter="url(#f1bxw06v2jk675)" height="48" id="IItem" style="stroke: #A80036; stroke-width: 1.5;" width="61" x="952.998" y="371.583"/><ellipse cx="967.998" cy="387.583" fill="#B4A7E5" rx="11" ry="11" style="stroke: #A80036; stroke-width: 1.0;"/><path d="M964.5918,381.8643 L964.5918,381.458 L970.9043,381.458 L970.9043,381.8643 L968.373,381.8643 Q968.373,381.8643 968.5214,381.9971 Q968.6699,382.1299 968.6699,382.3955 L968.6699,391.8799 Q968.6699,392.1455 968.8886,392.2783 Q969.1074,392.4111 969.1074,392.4111 L970.9043,392.4111 L970.9043,392.8174 L964.5918,392.8174 L964.5918,392.4111 L966.123,392.4111 Q966.4511,392.4111 966.5839,392.2783 Q966.7168,392.1455 966.7168,391.8799 L966.7168,382.3955 Q966.7168,382.1299 966.5839,381.9971 Q966.4511,381.8643 966.123,381.8643 L964.5918,381.8643 Z "/><text fill="#000000" font-family="sans-serif" font-size="12" font-style="italic" lengthAdjust="spacingAndGlyphs" textLength="29" x="981.998" y="393.1406">IItem</text><line style="stroke: #A80036; stroke-width: 1.5;" x1="953.998" x2="1012.998" y1="403.583" y2="403.583"/><line style="stroke: #A80036; stroke-width: 1.5;" x1="953.998" x2="1012.998" y1="411.583" y2="411.583"/><!--class ChangGeFactory--><rect fill="#FEFECE" filter="url(#f1bxw06v2jk675)" height="48" id="ChangGeFactory" style="stroke: #A80036; stroke-width: 1.5;" width="124" x="817.498" y="140.583"/><ellipse cx="832.498" cy="156.583" fill="#ADD1B2" rx="11" ry="11" style="stroke: #A80036; stroke-width: 1.0;"/><path d="M831.0761,161.9424 Q829.2168,161.9424 828.123,160.5518 Q827.0293,159.1611 827.0293,156.1768 Q827.0293,153.6455 828.1933,151.9893 Q829.3574,150.333 831.3418,150.333 Q832.8105,150.333 833.2793,150.458 Q833.748,150.6611 833.748,150.6611 Q833.748,150.6611 833.748,150.5908 Q833.748,150.5205 834.3574,149.5986 L835.4043,153.2549 L834.0761,153.6611 Q833.6074,152.1143 832.9433,151.4502 Q832.2793,150.7861 831.2168,150.7861 Q830.8261,150.7861 830.0605,152.3174 Q829.2949,153.8486 829.2949,156.0986 Q829.2949,158.5674 829.9589,159.958 Q830.623,161.3486 831.1543,161.3486 Q832.2168,161.3486 832.9746,160.583 Q833.7324,159.8174 834.0761,158.1611 L835.4043,158.7549 Q835.0761,160.1611 834.1777,161.0518 Q833.2793,161.9424 831.0761,161.9424 Z "/><text fill="#000000" font-family="sans-serif" font-size="12" lengthAdjust="spacingAndGlyphs" textLength="92" x="846.498" y="162.1406">ChangGeFactory</text><line style="stroke: #A80036; stroke-width: 1.5;" x1="818.498" x2="940.498" y1="172.583" y2="172.583"/><line style="stroke: #A80036; stroke-width: 1.5;" x1="818.498" x2="940.498" y1="180.583" y2="180.583"/><!--class ChunYangFatory--><rect fill="#FEFECE" filter="url(#f1bxw06v2jk675)" height="48" id="ChunYangFatory" style="stroke: #A80036; stroke-width: 1.5;" width="123" x="1022" y="140.583"/><ellipse cx="1037" cy="156.583" fill="#ADD1B2" rx="11" ry="11" style="stroke: #A80036; stroke-width: 1.0;"/><path d="M1035.5781,161.9424 Q1033.7188,161.9424 1032.625,160.5518 Q1031.5313,159.1611 1031.5313,156.1768 Q1031.5313,153.6455 1032.6953,151.9893 Q1033.8594,150.333 1035.8438,150.333 Q1037.3125,150.333 1037.7813,150.458 Q1038.25,150.6611 1038.25,150.6611 Q1038.25,150.6611 1038.25,150.5908 Q1038.25,150.5205 1038.8594,149.5986 L1039.9063,153.2549 L1038.5781,153.6611 Q1038.1094,152.1143 1037.4453,151.4502 Q1036.7813,150.7861 1035.7188,150.7861 Q1035.3281,150.7861 1034.5625,152.3174 Q1033.7969,153.8486 1033.7969,156.0986 Q1033.7969,158.5674 1034.4609,159.958 Q1035.125,161.3486 1035.6563,161.3486 Q1036.7188,161.3486 1037.4766,160.583 Q1038.2344,159.8174 1038.5781,158.1611 L1039.9063,158.7549 Q1039.5781,160.1611 1038.6797,161.0518 Q1037.7813,161.9424 1035.5781,161.9424 Z "/><text fill="#000000" font-family="sans-serif" font-size="12" lengthAdjust="spacingAndGlyphs" textLength="91" x="1051" y="162.1406">ChunYangFatory</text><line style="stroke: #A80036; stroke-width: 1.5;" x1="1023" x2="1144" y1="172.583" y2="172.583"/><line style="stroke: #A80036; stroke-width: 1.5;" x1="1023" x2="1144" y1="180.583" y2="180.583"/><!--class Sword--><rect fill="#FEFECE" filter="url(#f1bxw06v2jk675)" height="48" id="Sword" style="stroke: #A80036; stroke-width: 1.5;" width="67" x="1050" y="248.583"/><ellipse cx="1065" cy="264.583" fill="#ADD1B2" rx="11" ry="11" style="stroke: #A80036; stroke-width: 1.0;"/><path d="M1063.5781,269.9424 Q1061.7188,269.9424 1060.625,268.5518 Q1059.5313,267.1611 1059.5313,264.1768 Q1059.5313,261.6455 1060.6953,259.9893 Q1061.8594,258.333 1063.8438,258.333 Q1065.3125,258.333 1065.7813,258.458 Q1066.25,258.6611 1066.25,258.6611 Q1066.25,258.6611 1066.25,258.5908 Q1066.25,258.5205 1066.8594,257.5986 L1067.9063,261.2549 L1066.5781,261.6611 Q1066.1094,260.1143 1065.4453,259.4502 Q1064.7813,258.7861 1063.7188,258.7861 Q1063.3281,258.7861 1062.5625,260.3174 Q1061.7969,261.8486 1061.7969,264.0986 Q1061.7969,266.5674 1062.4609,267.958 Q1063.125,269.3486 1063.6563,269.3486 Q1064.7188,269.3486 1065.4766,268.583 Q1066.2344,267.8174 1066.5781,266.1611 L1067.9063,266.7549 Q1067.5781,268.1611 1066.6797,269.0518 Q1065.7813,269.9424 1063.5781,269.9424 Z "/><text fill="#000000" font-family="sans-serif" font-size="12" lengthAdjust="spacingAndGlyphs" textLength="35" x="1079" y="270.1406">Sword</text><line style="stroke: #A80036; stroke-width: 1.5;" x1="1051" x2="1116" y1="280.583" y2="280.583"/><line style="stroke: #A80036; stroke-width: 1.5;" x1="1051" x2="1116" y1="288.583" y2="288.583"/><!--class GuQin--><rect fill="#FEFECE" filter="url(#f1bxw06v2jk675)" height="48" id="GuQin" style="stroke: #A80036; stroke-width: 1.5;" width="67" x="845.998" y="248.583"/><ellipse cx="860.998" cy="264.583" fill="#ADD1B2" rx="11" ry="11" style="stroke: #A80036; stroke-width: 1.0;"/><path d="M859.5761,269.9424 Q857.7168,269.9424 856.623,268.5518 Q855.5293,267.1611 855.5293,264.1768 Q855.5293,261.6455 856.6933,259.9893 Q857.8574,258.333 859.8418,258.333 Q861.3105,258.333 861.7793,258.458 Q862.248,258.6611 862.248,258.6611 Q862.248,258.6611 862.248,258.5908 Q862.248,258.5205 862.8574,257.5986 L863.9043,261.2549 L862.5761,261.6611 Q862.1074,260.1143 861.4433,259.4502 Q860.7793,258.7861 859.7168,258.7861 Q859.3261,258.7861 858.5605,260.3174 Q857.7949,261.8486 857.7949,264.0986 Q857.7949,266.5674 858.4589,267.958 Q859.123,269.3486 859.6543,269.3486 Q860.7168,269.3486 861.4746,268.583 Q862.2324,267.8174 862.5761,266.1611 L863.9043,266.7549 Q863.5761,268.1611 862.6777,269.0518 Q861.7793,269.9424 859.5761,269.9424 Z "/><text fill="#000000" font-family="sans-serif" font-size="12" lengthAdjust="spacingAndGlyphs" textLength="35" x="874.998" y="270.1406">GuQin</text><line style="stroke: #A80036; stroke-width: 1.5;" x1="846.998" x2="911.998" y1="280.583" y2="280.583"/><line style="stroke: #A80036; stroke-width: 1.5;" x1="846.998" x2="911.998" y1="288.583" y2="288.583"/><!--class DaoFu--><rect fill="#FEFECE" filter="url(#f1bxw06v2jk675)" height="48" id="DaoFu" style="stroke: #A80036; stroke-width: 1.5;" width="69" x="1152" y="248.583"/><ellipse cx="1167" cy="264.583" fill="#ADD1B2" rx="11" ry="11" style="stroke: #A80036; stroke-width: 1.0;"/><path d="M1165.5781,269.9424 Q1163.7188,269.9424 1162.625,268.5518 Q1161.5313,267.1611 1161.5313,264.1768 Q1161.5313,261.6455 1162.6953,259.9893 Q1163.8594,258.333 1165.8438,258.333 Q1167.3125,258.333 1167.7813,258.458 Q1168.25,258.6611 1168.25,258.6611 Q1168.25,258.6611 1168.25,258.5908 Q1168.25,258.5205 1168.8594,257.5986 L1169.9063,261.2549 L1168.5781,261.6611 Q1168.1094,260.1143 1167.4453,259.4502 Q1166.7813,258.7861 1165.7188,258.7861 Q1165.3281,258.7861 1164.5625,260.3174 Q1163.7969,261.8486 1163.7969,264.0986 Q1163.7969,266.5674 1164.4609,267.958 Q1165.125,269.3486 1165.6563,269.3486 Q1166.7188,269.3486 1167.4766,268.583 Q1168.2344,267.8174 1168.5781,266.1611 L1169.9063,266.7549 Q1169.5781,268.1611 1168.6797,269.0518 Q1167.7813,269.9424 1165.5781,269.9424 Z "/><text fill="#000000" font-family="sans-serif" font-size="12" lengthAdjust="spacingAndGlyphs" textLength="37" x="1181" y="270.1406">DaoFu</text><line style="stroke: #A80036; stroke-width: 1.5;" x1="1153" x2="1220" y1="280.583" y2="280.583"/><line style="stroke: #A80036; stroke-width: 1.5;" x1="1153" x2="1220" y1="288.583" y2="288.583"/><!--class QinOil--><rect fill="#FEFECE" filter="url(#f1bxw06v2jk675)" height="48" id="QinOil" style="stroke: #A80036; stroke-width: 1.5;" width="66" x="948.498" y="248.583"/><ellipse cx="963.498" cy="264.583" fill="#ADD1B2" rx="11" ry="11" style="stroke: #A80036; stroke-width: 1.0;"/><path d="M962.0761,269.9424 Q960.2168,269.9424 959.123,268.5518 Q958.0293,267.1611 958.0293,264.1768 Q958.0293,261.6455 959.1933,259.9893 Q960.3574,258.333 962.3418,258.333 Q963.8105,258.333 964.2793,258.458 Q964.748,258.6611 964.748,258.6611 Q964.748,258.6611 964.748,258.5908 Q964.748,258.5205 965.3574,257.5986 L966.4043,261.2549 L965.0761,261.6611 Q964.6074,260.1143 963.9433,259.4502 Q963.2793,258.7861 962.2168,258.7861 Q961.8261,258.7861 961.0605,260.3174 Q960.2949,261.8486 960.2949,264.0986 Q960.2949,266.5674 960.9589,267.958 Q961.623,269.3486 962.1543,269.3486 Q963.2168,269.3486 963.9746,268.583 Q964.7324,267.8174 965.0761,266.1611 L966.4043,266.7549 Q966.0761,268.1611 965.1777,269.0518 Q964.2793,269.9424 962.0761,269.9424 Z "/><text fill="#000000" font-family="sans-serif" font-size="12" lengthAdjust="spacingAndGlyphs" textLength="34" x="977.498" y="270.1406">QinOil</text><line style="stroke: #A80036; stroke-width: 1.5;" x1="949.498" x2="1013.498" y1="280.583" y2="280.583"/><line style="stroke: #A80036; stroke-width: 1.5;" x1="949.498" x2="1013.498" y1="288.583" y2="288.583"/><!--link Quest to IQuest--><path d="M549.118,296.627 C543.405,312.338 535.672,333.604 528.871,352.3076 " fill="none" id="Quest-IQuest" style="stroke: #A80036; stroke-width: 1.0; stroke-dasharray: 7.0,7.0;"/><polygon fill="none" points="535.41,354.809,521.996,371.2127,522.253,350.0246,535.41,354.809" style="stroke: #A80036; stroke-width: 1.0;"/><!--link KillGoblin to Quest--><path d="M117.361,174.99 C206.116,194.468 409.717,239.151 505.669,260.208 " fill="none" id="KillGoblin-Quest" style="stroke: #A80036; stroke-width: 1.0;"/><polygon fill="none" points="507.461,253.435,525.496,264.56,504.46,267.11,507.461,253.435" style="stroke: #A80036; stroke-width: 1.0;"/><!--link DeliverGoods to Quest--><path d="M450.225,188.583 C468.055,202.379 491.11,220.217 511.275,235.819 " fill="none" id="DeliverGoods-Quest" style="stroke: #A80036; stroke-width: 1.0;"/><polygon fill="none" points="515.821,230.486,527.356,248.261,507.254,241.559,515.821,230.486" style="stroke: #A80036; stroke-width: 1.0;"/><!--link SearchRing to Quest--><path d="M557.498,188.583 C557.498,200.171 557.498,214.612 557.498,228.184 " fill="none" id="SearchRing-Quest" style="stroke: #A80036; stroke-width: 1.0;"/><polygon fill="none" points="564.498,228.261,557.498,248.261,550.498,228.261,564.498,228.261" style="stroke: #A80036; stroke-width: 1.0;"/><!--link KillGoblinFactory to IQuestFactory--><path d="M118.546,80.583 C146.78,95.326 183.856,114.686 215.099,131 " fill="none" id="KillGoblinFactory-IQuestFactory" style="stroke: #A80036; stroke-width: 1.0; stroke-dasharray: 7.0,7.0;"/><polygon fill="none" points="218.697,124.982,233.186,140.445,212.217,137.392,218.697,124.982" style="stroke: #A80036; stroke-width: 1.0;"/><!--link DeliverGoodsFactory to IQuestFactory--><path d="M277.498,80.583 C277.498,92.171 277.498,106.612 277.498,120.184 " fill="none" id="DeliverGoodsFactory-IQuestFactory" style="stroke: #A80036; stroke-width: 1.0; stroke-dasharray: 7.0,7.0;"/><polygon fill="none" points="284.498,120.261,277.498,140.261,270.498,120.261,284.498,120.261" style="stroke: #A80036; stroke-width: 1.0;"/><!--link SearchRingFactory to IQuestFactory--><path d="M496.742,80.583 C453.773,96.85 395.955,118.739 350.481,135.954 " fill="none" id="SearchRingFactory-IQuestFactory" style="stroke: #A80036; stroke-width: 1.0; stroke-dasharray: 7.0,7.0;"/><polygon fill="none" points="352.694,142.601,331.511,143.135,347.737,129.508,352.694,142.601" style="stroke: #A80036; stroke-width: 1.0;"/><!--link KillGoblinFactory to KillGoblin--><path d="M74.498,80.583 C74.498,96.586 74.498,118.029 74.498,135.111 " fill="none" id="KillGoblinFactory-KillGoblin" style="stroke: #A80036; stroke-width: 1.0; stroke-dasharray: 7.0,7.0;"/><polygon fill="#A80036" points="74.498,140.261,78.498,131.261,74.498,135.261,70.498,131.261,74.498,140.261" style="stroke: #A80036; stroke-width: 1.0;"/><!--link DeliverGoodsFactory to DeliverGoods--><path d="M308.527,80.583 C330.953,97.207 361.299,119.701 384.742,137.079 " fill="none" id="DeliverGoodsFactory-DeliverGoods" style="stroke: #A80036; stroke-width: 1.0; stroke-dasharray: 7.0,7.0;"/><polygon fill="#A80036" points="389.036,140.261,384.1869,131.6886,385.0189,137.2839,379.4236,138.1159,389.036,140.261" style="stroke: #A80036; stroke-width: 1.0;"/><!--link SearchRingFactory to SearchRing--><path d="M557.498,80.583 C557.498,96.586 557.498,118.029 557.498,135.111 " fill="none" id="SearchRingFactory-SearchRing" style="stroke: #A80036; stroke-width: 1.0; stroke-dasharray: 7.0,7.0;"/><polygon fill="#A80036" points="557.498,140.261,561.498,131.261,557.498,135.261,553.498,131.261,557.498,140.261" style="stroke: #A80036; stroke-width: 1.0;"/><!--link ChangGeFactory to IEquipmentFactory--><path d="M842.977,188.753 C819.854,204.279 789.995,225.96 766.498,248.583 C737.78,276.233 709.85,311.064 688.595,339.77 " fill="none" id="ChangGeFactory-IEquipmentFactory" style="stroke: #A80036; stroke-width: 1.0; stroke-dasharray: 7.0,7.0;"/><polygon fill="none" points="694.005,344.2318,676.586,356.2969,682.68,336.0023,694.005,344.2318" style="stroke: #A80036; stroke-width: 1.0;"/><!--link ChunYangFatory to IEquipmentFactory--><path d="M1021.87,178.722 C968.514,191.68 890.397,214.525 828.498,248.583 C799.182,264.713 796.345,275.334 770.498,296.583 C751.856,311.908 731.542,328.529 713.018,343.6539 " fill="none" id="ChunYangFatory-IEquipmentFactory" style="stroke: #A80036; stroke-width: 1.0; stroke-dasharray: 7.0,7.0;"/><polygon fill="none" points="717.207,349.2698,697.286,356.4907,708.356,338.4227,717.207,349.2698" style="stroke: #A80036; stroke-width: 1.0;"/><!--link Sword to IWeapon--><path d="M1049.95,291.634 C1019.74,308.073 974.245,333.27 935.498,356.583 C933.296,357.908 931.056,359.2726 928.8,360.6613 " fill="none" id="Sword-IWeapon" style="stroke: #A80036; stroke-width: 1.0; stroke-dasharray: 7.0,7.0;"/><polygon fill="none" points="932.188,366.7998,911.531,371.5216,924.735,354.9486,932.188,366.7998" style="stroke: #A80036; stroke-width: 1.0;"/><!--link GuQin to IWeapon--><path d="M878.927,296.627 C878.545,312.003 878.032,332.702 877.576,351.1104 " fill="none" id="GuQin-IWeapon" style="stroke: #A80036; stroke-width: 1.0; stroke-dasharray: 7.0,7.0;"/><polygon fill="none" points="884.571,351.3923,877.077,371.2127,870.575,351.0453,884.571,351.3923" style="stroke: #A80036; stroke-width: 1.0;"/><!--link DaoFu to IItem--><path d="M1151.6,294.384 C1118.53,314.095 1068.58,343.8717 1031.71,365.8457 " fill="none" id="DaoFu-IItem" style="stroke: #A80036; stroke-width: 1.0; stroke-dasharray: 7.0,7.0;"/><polygon fill="none" points="1035.05,372.0016,1014.29,376.2288,1027.89,359.9758,1035.05,372.0016" style="stroke: #A80036; stroke-width: 1.0;"/><!--link QinOil to IItem--><path d="M981.879,296.627 C982.133,312.003 982.475,332.702 982.779,351.1104 " fill="none" id="QinOil-IItem" style="stroke: #A80036; stroke-width: 1.0; stroke-dasharray: 7.0,7.0;"/><polygon fill="none" points="989.78,351.0997,983.112,371.2127,975.782,351.3311,989.78,351.0997" style="stroke: #A80036; stroke-width: 1.0;"/><!--link ChunYangFatory to Sword--><path d="M1083.5,188.583 C1083.5,204.586 1083.5,226.029 1083.5,243.111 " fill="none" id="ChunYangFatory-Sword" style="stroke: #A80036; stroke-width: 1.0; stroke-dasharray: 7.0,7.0;"/><polygon fill="#A80036" points="1083.5,248.261,1087.5,239.261,1083.5,243.261,1079.5,239.261,1083.5,248.261" style="stroke: #A80036; stroke-width: 1.0;"/><!--link ChunYangFatory to DaoFu--><path d="M1105.85,188.583 C1121.8,205 1143.31,227.142 1160.11,244.427 " fill="none" id="ChunYangFatory-DaoFu" style="stroke: #A80036; stroke-width: 1.0; stroke-dasharray: 7.0,7.0;"/><polygon fill="#A80036" points="1163.84,248.261,1160.4367,239.0188,1160.3555,244.6751,1154.6993,244.594,1163.84,248.261" style="stroke: #A80036; stroke-width: 1.0;"/><!--link ChangGeFactory to GuQin--><path d="M879.498,188.583 C879.498,204.586 879.498,226.029 879.498,243.111 " fill="none" id="ChangGeFactory-GuQin" style="stroke: #A80036; stroke-width: 1.0; stroke-dasharray: 7.0,7.0;"/><polygon fill="#A80036" points="879.498,248.261,883.498,239.261,879.498,243.261,875.498,239.261,879.498,248.261" style="stroke: #A80036; stroke-width: 1.0;"/><!--link ChangGeFactory to QinOil--><path d="M901.631,188.583 C917.427,205 938.734,227.142 955.367,244.427 " fill="none" id="ChangGeFactory-QinOil" style="stroke: #A80036; stroke-width: 1.0; stroke-dasharray: 7.0,7.0;"/><polygon fill="#A80036" points="959.057,248.261,955.6985,239.0025,955.59,244.6583,949.9342,244.5497,959.057,248.261" style="stroke: #A80036; stroke-width: 1.0;"/><!--link Quest to IEquipmentFactory--><path d="M575.21,296.627 C587.263,312.309 603.57,333.526 617.926,352.2043 " fill="none" id="Quest-IEquipmentFactory" style="stroke: #A80036; stroke-width: 1.0;"/><polygon fill="#A80036" points="621.147,356.3952,618.8338,346.8218,618.1,352.4309,612.4909,351.6971,621.147,356.3952" style="stroke: #A80036; stroke-width: 1.0;"/><!--link Quest to IItem--><path d="M589.546,275.873 C656.543,281.66 815.095,300.638 934.498,356.583 C941.23,359.7374 947.897,363.9555 954.042,368.4337 " fill="none" id="Quest-IItem" style="stroke: #A80036; stroke-width: 1.0;"/><polygon fill="#A80036" points="958.208,371.5657,953.4174,362.9604,954.2113,368.5613,948.6104,369.3552,958.208,371.5657" style="stroke: #A80036; stroke-width: 1.0;"/><!--link Quest to IWeapon--><path d="M589.546,285.739 C646.366,307.291 764.939,352.2674 830.48,377.1279 " fill="none" id="Quest-IWeapon" style="stroke: #A80036; stroke-width: 1.0;"/><polygon fill="#A80036" points="835.493,379.0292,828.4961,372.0979,830.8179,377.2563,825.6594,379.5781,835.493,379.0292" style="stroke: #A80036; stroke-width: 1.0;"/><!--link KillGoblinFactory to IEquipmentFactory--><path d="M49.9469,80.74 C24.0265,108.053 -9.9543,154.097 14.4981,188.583 C162.335,397.0837 322.658,273.869 564.498,356.583 C568.808,358.0571 573.2,359.6614 577.606,361.35 " fill="none" id="KillGoblinFactory-IEquipmentFactory" style="stroke: #A80036; stroke-width: 1.0; stroke-dasharray: 7.0,7.0;"/><polygon fill="#A80036" points="582.388,363.2132,575.453,356.2199,577.7288,361.3988,572.55,363.6746,582.388,363.2132" style="stroke: #A80036; stroke-width: 1.0;"/><!--link DeliverGoodsFactory to IEquipmentFactory--><path d="M249.241,80.593 C220.138,107.176 182.091,151.954 205.498,188.583 C210.936,197.093 452.943,306.23 577.725,362.0967 " fill="none" id="DeliverGoodsFactory-IEquipmentFactory" style="stroke: #A80036; stroke-width: 1.0; stroke-dasharray: 7.0,7.0;"/><polygon fill="#A80036" points="582.48,364.2251,575.8997,356.8971,577.9164,362.1823,572.6312,364.1989,582.48,364.2251" style="stroke: #A80036; stroke-width: 1.0;"/><!--link SearchRingFactory to IEquipmentFactory--><path d="M581.807,80.614 C596.501,96.084 614.145,117.755 623.498,140.583 C652.024,210.208 654.598,299.119 653.089,351.1648 " fill="none" id="SearchRingFactory-IEquipmentFactory" style="stroke: #A80036; stroke-width: 1.0; stroke-dasharray: 7.0,7.0;"/><polygon fill="#A80036" points="652.92,356.3945,657.2088,347.5285,653.0816,351.3971,649.2129,347.2699,652.92,356.3945" style="stroke: #A80036; stroke-width: 1.0;"/><!--
@startuml
title Abastract Factory Diagram
interface IQuest
interface IQuestFactory

abstract class Quest
class KillGoblin
class DeliverGoods
class SearchRing

class KillGoblinFactory
class DeliverGoodsFactory
class SearchRingFactory

interface IEquipmentFactory{
    CreateWeapon()
    CreateItem()
}

interface IWeapon
interface IItem 

class ChangGeFactory 
class ChunYangFatory

class Sword
class GuQin

class DaoFu
class QinOil
Quest ..|> IQuest
KillGoblin- -|> Quest
DeliverGoods - -|> Quest
SearchRing - -|> Quest

KillGoblinFactory ..|> IQuestFactory
DeliverGoodsFactory ..|> IQuestFactory
SearchRingFactory ..|> IQuestFactory

KillGoblinFactory ..> KillGoblin
DeliverGoodsFactory ..> DeliverGoods
SearchRingFactory ..> SearchRing

ChangGeFactory ..|> IEquipmentFactory
ChunYangFatory ..|> IEquipmentFactory


Sword ..|> IWeapon
GuQin ..|> IWeapon
DaoFu ..|> IItem
QinOil ..|> IItem

ChunYangFatory ..> Sword
ChunYangFatory ..> DaoFu

ChangGeFactory ..> GuQin
ChangGeFactory ..> QinOil

Quest - -> IEquipmentFactory
Quest - -> IItem
Quest - -> IWeapon

KillGoblinFactory ..> IEquipmentFactory
DeliverGoodsFactory ..> IEquipmentFactory
SearchRingFactory ..> IEquipmentFactory






@enduml

PlantUML version 1.2018.12(Sun Oct 21 18:15:15 CST 2018)
(GPL source distribution)
Java Runtime: Java(TM) SE Runtime Environment
JVM: Java HotSpot(TM) 64-Bit Server VM
Java Version: 1.8.0_181-b13
Operating System: Windows 10
OS Version: 10.0
Default Encoding: GBK
Language: zh
Country: CN
--></g></svg>