<?xml version="1.0" encoding="UTF-8" standalone="no"?><svg xmlns="http://www.w3.org/2000/svg" xmlns:xlink="http://www.w3.org/1999/xlink" contentScriptType="application/ecmascript" contentStyleType="text/css" height="415px" preserveAspectRatio="none" style="width:387px;height:415px;" version="1.1" viewBox="0 0 387 415" width="387px" zoomAndPan="magnify"><defs><filter height="300%" id="f1mp2e5z109vyz" width="300%" x="-1" y="-1"><feGaussianBlur result="blurOut" stdDeviation="2.0"/><feColorMatrix in="blurOut" result="blurOut2" type="matrix" values="0 0 0 0 0 0 0 0 0 0 0 0 0 0 0 0 0 0 .4 0"/><feOffset dx="4.0" dy="4.0" in="blurOut2" result="blurOut3"/><feBlend in="SourceGraphic" in2="blurOut3" mode="normal"/></filter></defs><g><text fill="#000000" font-family="sans-serif" font-size="18" lengthAdjust="spacingAndGlyphs" textLength="232" x="81.5" y="20.6279">Static Factory Class Diagram</text><!--class IQuest--><rect fill="#FEFECE" filter="url(#f1mp2e5z109vyz)" height="48" id="IQuest" style="stroke: #A80036; stroke-width: 1.5;" width="68" x="223" y="356.583"/><ellipse cx="238" cy="372.583" fill="#B4A7E5" rx="11" ry="11" style="stroke: #A80036; stroke-width: 1.0;"/><path d="M234.5938,366.8643 L234.5938,366.458 L240.9063,366.458 L240.9063,366.8643 L238.375,366.8643 Q238.375,366.8643 238.5234,366.9971 Q238.6719,367.1299 238.6719,367.3955 L238.6719,376.8799 Q238.6719,377.1455 238.8906,377.2783 Q239.1094,377.4111 239.1094,377.4111 L240.9063,377.4111 L240.9063,377.8174 L234.5938,377.8174 L234.5938,377.4111 L236.125,377.4111 Q236.4531,377.4111 236.5859,377.2783 Q236.7188,377.1455 236.7188,376.8799 L236.7188,367.3955 Q236.7188,367.1299 236.5859,366.9971 Q236.4531,366.8643 236.125,366.8643 L234.5938,366.8643 Z "/><text fill="#000000" font-family="sans-serif" font-size="12" font-style="italic" lengthAdjust="spacingAndGlyphs" textLength="36" x="252" y="378.1406">IQuest</text><line style="stroke: #A80036; stroke-width: 1.5;" x1="224" x2="290" y1="388.583" y2="388.583"/><line style="stroke: #A80036; stroke-width: 1.5;" x1="224" x2="290" y1="396.583" y2="396.583"/><!--class IQuestFactory--><rect fill="#FEFECE" filter="url(#f1mp2e5z109vyz)" height="48" id="IQuestFactory" style="stroke: #A80036; stroke-width: 1.5;" width="108" x="6" y="140.583"/><ellipse cx="21" cy="156.583" fill="#B4A7E5" rx="11" ry="11" style="stroke: #A80036; stroke-width: 1.0;"/><path d="M17.5938,150.8643 L17.5938,150.458 L23.9063,150.458 L23.9063,150.8643 L21.375,150.8643 Q21.375,150.8643 21.5234,150.9971 Q21.6719,151.1299 21.6719,151.3955 L21.6719,160.8799 Q21.6719,161.1455 21.8906,161.2783 Q22.1094,161.4111 22.1094,161.4111 L23.9063,161.4111 L23.9063,161.8174 L17.5938,161.8174 L17.5938,161.4111 L19.125,161.4111 Q19.4531,161.4111 19.5859,161.2783 Q19.7188,161.1455 19.7188,160.8799 L19.7188,151.3955 Q19.7188,151.1299 19.5859,150.9971 Q19.4531,150.8643 19.125,150.8643 L17.5938,150.8643 Z "/><text fill="#000000" font-family="sans-serif" font-size="12" font-style="italic" lengthAdjust="spacingAndGlyphs" textLength="76" x="35" y="162.1406">IQuestFactory</text><line style="stroke: #A80036; stroke-width: 1.5;" x1="7" x2="113" y1="172.583" y2="172.583"/><line style="stroke: #A80036; stroke-width: 1.5;" x1="7" x2="113" y1="180.583" y2="180.583"/><!--class Quest--><rect fill="#FEFECE" filter="url(#f1mp2e5z109vyz)" height="48" id="Quest" style="stroke: #A80036; stroke-width: 1.5;" width="64" x="225" y="248.583"/><ellipse cx="240" cy="264.583" fill="#A9DCDF" rx="11" ry="11" style="stroke: #A80036; stroke-width: 1.0;"/><path d="M240.375,264.5674 L238.3906,264.5674 L237.7969,267.083 Q237.7344,267.4268 237.7344,267.6143 Q237.7344,267.8799 237.8281,268.1455 Q237.9219,268.4111 237.9219,268.4111 L238.5938,268.4111 L238.5938,268.8174 L235.1406,268.8174 L235.1406,268.4111 L235.3281,268.4111 Q235.5938,268.4111 235.7969,268.2471 Q236,268.083 236.0625,267.6924 L238.6563,257.5205 L240.5313,256.9111 L243.1719,267.6924 Q243.3125,268.083 243.5078,268.2471 Q243.7031,268.4111 243.7031,268.4111 L244.1719,268.4111 L244.1719,268.8174 L240.3125,268.8174 L240.3125,268.4111 L240.5781,268.4111 Q240.9844,268.4111 241.0469,268.2471 Q241.1094,268.083 241.1094,267.958 Q241.1094,267.6924 241.0469,267.4893 L240.375,264.5674 Z M238.9844,258.6611 L238.9844,258.6611 L238.5313,264.1611 L240.3125,264.1611 L238.9844,258.6611 Z "/><text fill="#000000" font-family="sans-serif" font-size="12" font-style="italic" lengthAdjust="spacingAndGlyphs" textLength="32" x="254" y="270.1406">Quest</text><line style="stroke: #A80036; stroke-width: 1.5;" x1="226" x2="288" y1="280.583" y2="280.583"/><line style="stroke: #A80036; stroke-width: 1.5;" x1="226" x2="288" y1="288.583" y2="288.583"/><!--class KillGoblin--><rect fill="#FEFECE" filter="url(#f1mp2e5z109vyz)" height="48" id="KillGoblin" style="stroke: #A80036; stroke-width: 1.5;" width="85" x="149.5" y="140.583"/><ellipse cx="164.5" cy="156.583" fill="#ADD1B2" rx="11" ry="11" style="stroke: #A80036; stroke-width: 1.0;"/><path d="M163.0781,161.9424 Q161.2188,161.9424 160.125,160.5518 Q159.0313,159.1611 159.0313,156.1768 Q159.0313,153.6455 160.1953,151.9893 Q161.3594,150.333 163.3438,150.333 Q164.8125,150.333 165.2813,150.458 Q165.75,150.6611 165.75,150.6611 Q165.75,150.6611 165.75,150.5908 Q165.75,150.5205 166.3594,149.5986 L167.4063,153.2549 L166.0781,153.6611 Q165.6094,152.1143 164.9453,151.4502 Q164.2813,150.7861 163.2188,150.7861 Q162.8281,150.7861 162.0625,152.3174 Q161.2969,153.8486 161.2969,156.0986 Q161.2969,158.5674 161.9609,159.958 Q162.625,161.3486 163.1563,161.3486 Q164.2188,161.3486 164.9766,160.583 Q165.7344,159.8174 166.0781,158.1611 L167.4063,158.7549 Q167.0781,160.1611 166.1797,161.0518 Q165.2813,161.9424 163.0781,161.9424 Z "/><text fill="#000000" font-family="sans-serif" font-size="12" lengthAdjust="spacingAndGlyphs" textLength="53" x="178.5" y="162.1406">KillGoblin</text><line style="stroke: #A80036; stroke-width: 1.5;" x1="150.5" x2="233.5" y1="172.583" y2="172.583"/><line style="stroke: #A80036; stroke-width: 1.5;" x1="150.5" x2="233.5" y1="180.583" y2="180.583"/><!--class DeliverGoods--><rect fill="#FEFECE" filter="url(#f1mp2e5z109vyz)" height="48" id="DeliverGoods" style="stroke: #A80036; stroke-width: 1.5;" width="107" x="269.5" y="140.583"/><ellipse cx="284.5" cy="156.583" fill="#ADD1B2" rx="11" ry="11" style="stroke: #A80036; stroke-width: 1.0;"/><path d="M283.0781,161.9424 Q281.2188,161.9424 280.125,160.5518 Q279.0313,159.1611 279.0313,156.1768 Q279.0313,153.6455 280.1953,151.9893 Q281.3594,150.333 283.3438,150.333 Q284.8125,150.333 285.2813,150.458 Q285.75,150.6611 285.75,150.6611 Q285.75,150.6611 285.75,150.5908 Q285.75,150.5205 286.3594,149.5986 L287.4063,153.2549 L286.0781,153.6611 Q285.6094,152.1143 284.9453,151.4502 Q284.2813,150.7861 283.2188,150.7861 Q282.8281,150.7861 282.0625,152.3174 Q281.2969,153.8486 281.2969,156.0986 Q281.2969,158.5674 281.9609,159.958 Q282.625,161.3486 283.1563,161.3486 Q284.2188,161.3486 284.9766,160.583 Q285.7344,159.8174 286.0781,158.1611 L287.4063,158.7549 Q287.0781,160.1611 286.1797,161.0518 Q285.2813,161.9424 283.0781,161.9424 Z "/><text fill="#000000" font-family="sans-serif" font-size="12" lengthAdjust="spacingAndGlyphs" textLength="75" x="298.5" y="162.1406">DeliverGoods</text><line style="stroke: #A80036; stroke-width: 1.5;" x1="270.5" x2="375.5" y1="172.583" y2="172.583"/><line style="stroke: #A80036; stroke-width: 1.5;" x1="270.5" x2="375.5" y1="180.583" y2="180.583"/><!--class StaticQuestFactory--><rect fill="#FEFECE" filter="url(#f1mp2e5z109vyz)" height="48" id="StaticQuestFactory" style="stroke: #A80036; stroke-width: 1.5;" width="134" x="125" y="32.583"/><ellipse cx="140" cy="48.583" fill="#ADD1B2" rx="11" ry="11" style="stroke: #A80036; stroke-width: 1.0;"/><path d="M138.5781,53.9424 Q136.7188,53.9424 135.625,52.5518 Q134.5313,51.1611 134.5313,48.1768 Q134.5313,45.6455 135.6953,43.9893 Q136.8594,42.333 138.8438,42.333 Q140.3125,42.333 140.7813,42.458 Q141.25,42.6611 141.25,42.6611 Q141.25,42.6611 141.25,42.5908 Q141.25,42.5205 141.8594,41.5986 L142.9063,45.2549 L141.5781,45.6611 Q141.1094,44.1143 140.4453,43.4502 Q139.7813,42.7861 138.7188,42.7861 Q138.3281,42.7861 137.5625,44.3174 Q136.7969,45.8486 136.7969,48.0986 Q136.7969,50.5674 137.4609,51.958 Q138.125,53.3486 138.6563,53.3486 Q139.7188,53.3486 140.4766,52.583 Q141.2344,51.8174 141.5781,50.1611 L142.9063,50.7549 Q142.5781,52.1611 141.6797,53.0518 Q140.7813,53.9424 138.5781,53.9424 Z "/><text fill="#000000" font-family="sans-serif" font-size="12" lengthAdjust="spacingAndGlyphs" textLength="102" x="154" y="54.1406">StaticQuestFactory</text><line style="stroke: #A80036; stroke-width: 1.5;" x1="126" x2="258" y1="64.583" y2="64.583"/><line style="stroke: #A80036; stroke-width: 1.5;" x1="126" x2="258" y1="72.583" y2="72.583"/><!--link Quest to IQuest--><path d="M257,296.583 C257,308.1715 257,322.6124 257,336.1843 " fill="none" id="Quest-IQuest" style="stroke: #A80036; stroke-width: 1.0; stroke-dasharray: 7.0,7.0;"/><polygon fill="none" points="264,336.2615,257,356.2614,250,336.2614,264,336.2615" style="stroke: #A80036; stroke-width: 1.0;"/><!--link StaticQuestFactory to IQuestFactory--><path d="M163.358,80.583 C146.265,94.31 124.187,112.039 104.8274,127.585 " fill="none" id="StaticQuestFactory-IQuestFactory" style="stroke: #A80036; stroke-width: 1.0; stroke-dasharray: 7.0,7.0;"/><polygon fill="none" points="109.019,133.197,89.042,140.261,100.2533,122.281,109.019,133.197" style="stroke: #A80036; stroke-width: 1.0;"/><!--link KillGoblin to Quest--><path d="M206.104,188.583 C213.717,200.999 223.339,216.69 232.162,231.078 " fill="none" id="KillGoblin-Quest" style="stroke: #A80036; stroke-width: 1.0;"/><polygon fill="none" points="238.211,227.552,242.699,248.261,226.277,234.871,238.211,227.552" style="stroke: #A80036; stroke-width: 1.0;"/><!--link DeliverGoods to Quest--><path d="M308.679,188.583 C300.948,200.999 291.179,216.69 282.22,231.078 " fill="none" id="DeliverGoods-Quest" style="stroke: #A80036; stroke-width: 1.0;"/><polygon fill="none" points="288.034,234.983,271.521,248.261,276.15,227.584,288.034,234.983" style="stroke: #A80036; stroke-width: 1.0;"/><!--link StaticQuestFactory to KillGoblin--><path d="M192,80.583 C192,96.586 192,118.029 192,135.111 " fill="none" id="StaticQuestFactory-KillGoblin" style="stroke: #A80036; stroke-width: 1.0; stroke-dasharray: 7.0,7.0;"/><polygon fill="#A80036" points="192,140.261,196,131.261,192,135.261,188,131.261,192,140.261" style="stroke: #A80036; stroke-width: 1.0;"/><!--link StaticQuestFactory to DeliverGoods--><path d="M220.425,80.583 C240.969,97.207 268.768,119.701 290.245,137.079 " fill="none" id="StaticQuestFactory-DeliverGoods" style="stroke: #A80036; stroke-width: 1.0; stroke-dasharray: 7.0,7.0;"/><polygon fill="#A80036" points="294.178,140.261,289.6982,131.49,290.2913,137.1156,284.6656,137.7087,294.178,140.261" style="stroke: #A80036; stroke-width: 1.0;"/><!--
@startuml
title Static Factory Class Diagram
interface IQuest
interface IQuestFactory

abstract class Quest
class KillGoblin
class DeliverGoods

class StaticQuestFactory

Quest ..|> IQuest
StaticQuestFactory ..|> IQuestFactory

KillGoblin - -|> Quest
DeliverGoods - -|> Quest

StaticQuestFactory ..> KillGoblin
StaticQuestFactory ..> DeliverGoods
@enduml

PlantUML version 1.2018.12(Sun Oct 21 18:15:15 CST 2018)
(GPL source distribution)
Java Runtime: Java(TM) SE Runtime Environment
JVM: Java HotSpot(TM) 64-Bit Server VM
Java Version: 1.8.0_181-b13
Operating System: Windows 10
OS Version: 10.0
Default Encoding: GBK
Language: zh
Country: CN
--></g></svg>