<?xml version="1.0" encoding="UTF-8" standalone="no"?><svg xmlns="http://www.w3.org/2000/svg" xmlns:xlink="http://www.w3.org/1999/xlink" contentScriptType="application/ecmascript" contentStyleType="text/css" height="415px" preserveAspectRatio="none" style="width:530px;height:415px;" version="1.1" viewBox="0 0 530 415" width="530px" zoomAndPan="magnify"><defs><filter height="300%" id="f12crn4n8ppy6f" width="300%" x="-1" y="-1"><feGaussianBlur result="blurOut" stdDeviation="2.0"/><feColorMatrix in="blurOut" result="blurOut2" type="matrix" values="0 0 0 0 0 0 0 0 0 0 0 0 0 0 0 0 0 0 .4 0"/><feOffset dx="4.0" dy="4.0" in="blurOut2" result="blurOut3"/><feBlend in="SourceGraphic" in2="blurOut3" mode="normal"/></filter></defs><g><text fill="#000000" font-family="sans-serif" font-size="18" lengthAdjust="spacingAndGlyphs" textLength="175" x="181.5" y="20.6279">Factory class diagram</text><!--class IQuest--><rect fill="#FEFECE" filter="url(#f12crn4n8ppy6f)" height="48" id="IQuest" style="stroke: #A80036; stroke-width: 1.5;" width="68" x="145.5" y="356.583"/><ellipse cx="160.5" cy="372.583" fill="#B4A7E5" rx="11" ry="11" style="stroke: #A80036; stroke-width: 1.0;"/><path d="M157.0938,366.8643 L157.0938,366.458 L163.4063,366.458 L163.4063,366.8643 L160.875,366.8643 Q160.875,366.8643 161.0234,366.9971 Q161.1719,367.1299 161.1719,367.3955 L161.1719,376.8799 Q161.1719,377.1455 161.3906,377.2783 Q161.6094,377.4111 161.6094,377.4111 L163.4063,377.4111 L163.4063,377.8174 L157.0938,377.8174 L157.0938,377.4111 L158.625,377.4111 Q158.9531,377.4111 159.0859,377.2783 Q159.2188,377.1455 159.2188,376.8799 L159.2188,367.3955 Q159.2188,367.1299 159.0859,366.9971 Q158.9531,366.8643 158.625,366.8643 L157.0938,366.8643 Z "/><text fill="#000000" font-family="sans-serif" font-size="12" font-style="italic" lengthAdjust="spacingAndGlyphs" textLength="36" x="174.5" y="378.1406">IQuest</text><line style="stroke: #A80036; stroke-width: 1.5;" x1="146.5" x2="212.5" y1="388.583" y2="388.583"/><line style="stroke: #A80036; stroke-width: 1.5;" x1="146.5" x2="212.5" y1="396.583" y2="396.583"/><!--class IQuestFactory--><rect fill="#FEFECE" filter="url(#f12crn4n8ppy6f)" height="48" id="IQuestFactory" style="stroke: #A80036; stroke-width: 1.5;" width="108" x="268.5" y="140.583"/><ellipse cx="283.5" cy="156.583" fill="#B4A7E5" rx="11" ry="11" style="stroke: #A80036; stroke-width: 1.0;"/><path d="M280.0938,150.8643 L280.0938,150.458 L286.4063,150.458 L286.4063,150.8643 L283.875,150.8643 Q283.875,150.8643 284.0234,150.9971 Q284.1719,151.1299 284.1719,151.3955 L284.1719,160.8799 Q284.1719,161.1455 284.3906,161.2783 Q284.6094,161.4111 284.6094,161.4111 L286.4063,161.4111 L286.4063,161.8174 L280.0938,161.8174 L280.0938,161.4111 L281.625,161.4111 Q281.9531,161.4111 282.0859,161.2783 Q282.2188,161.1455 282.2188,160.8799 L282.2188,151.3955 Q282.2188,151.1299 282.0859,150.9971 Q281.9531,150.8643 281.625,150.8643 L280.0938,150.8643 Z "/><text fill="#000000" font-family="sans-serif" font-size="12" font-style="italic" lengthAdjust="spacingAndGlyphs" textLength="76" x="297.5" y="162.1406">IQuestFactory</text><line style="stroke: #A80036; stroke-width: 1.5;" x1="269.5" x2="375.5" y1="172.583" y2="172.583"/><line style="stroke: #A80036; stroke-width: 1.5;" x1="269.5" x2="375.5" y1="180.583" y2="180.583"/><!--class Quest--><rect fill="#FEFECE" filter="url(#f12crn4n8ppy6f)" height="48" id="Quest" style="stroke: #A80036; stroke-width: 1.5;" width="64" x="147.5" y="248.583"/><ellipse cx="162.5" cy="264.583" fill="#A9DCDF" rx="11" ry="11" style="stroke: #A80036; stroke-width: 1.0;"/><path d="M162.875,264.5674 L160.8906,264.5674 L160.2969,267.083 Q160.2344,267.4268 160.2344,267.6143 Q160.2344,267.8799 160.3281,268.1455 Q160.4219,268.4111 160.4219,268.4111 L161.0938,268.4111 L161.0938,268.8174 L157.6406,268.8174 L157.6406,268.4111 L157.8281,268.4111 Q158.0938,268.4111 158.2969,268.2471 Q158.5,268.083 158.5625,267.6924 L161.1563,257.5205 L163.0313,256.9111 L165.6719,267.6924 Q165.8125,268.083 166.0078,268.2471 Q166.2031,268.4111 166.2031,268.4111 L166.6719,268.4111 L166.6719,268.8174 L162.8125,268.8174 L162.8125,268.4111 L163.0781,268.4111 Q163.4844,268.4111 163.5469,268.2471 Q163.6094,268.083 163.6094,267.958 Q163.6094,267.6924 163.5469,267.4893 L162.875,264.5674 Z M161.4844,258.6611 L161.4844,258.6611 L161.0313,264.1611 L162.8125,264.1611 L161.4844,258.6611 Z "/><text fill="#000000" font-family="sans-serif" font-size="12" font-style="italic" lengthAdjust="spacingAndGlyphs" textLength="32" x="176.5" y="270.1406">Quest</text><line style="stroke: #A80036; stroke-width: 1.5;" x1="148.5" x2="210.5" y1="280.583" y2="280.583"/><line style="stroke: #A80036; stroke-width: 1.5;" x1="148.5" x2="210.5" y1="288.583" y2="288.583"/><!--class KillGoblin--><rect fill="#FEFECE" filter="url(#f12crn4n8ppy6f)" height="48" id="KillGoblin" style="stroke: #A80036; stroke-width: 1.5;" width="85" x="6" y="140.583"/><ellipse cx="21" cy="156.583" fill="#ADD1B2" rx="11" ry="11" style="stroke: #A80036; stroke-width: 1.0;"/><path d="M19.5781,161.9424 Q17.7188,161.9424 16.625,160.5518 Q15.5313,159.1611 15.5313,156.1768 Q15.5313,153.6455 16.6953,151.9893 Q17.8594,150.333 19.8438,150.333 Q21.3125,150.333 21.7813,150.458 Q22.25,150.6611 22.25,150.6611 Q22.25,150.6611 22.25,150.5908 Q22.25,150.5205 22.8594,149.5986 L23.9063,153.2549 L22.5781,153.6611 Q22.1094,152.1143 21.4453,151.4502 Q20.7813,150.7861 19.7188,150.7861 Q19.3281,150.7861 18.5625,152.3174 Q17.7969,153.8486 17.7969,156.0986 Q17.7969,158.5674 18.4609,159.958 Q19.125,161.3486 19.6563,161.3486 Q20.7188,161.3486 21.4766,160.583 Q22.2344,159.8174 22.5781,158.1611 L23.9063,158.7549 Q23.5781,160.1611 22.6797,161.0518 Q21.7813,161.9424 19.5781,161.9424 Z "/><text fill="#000000" font-family="sans-serif" font-size="12" lengthAdjust="spacingAndGlyphs" textLength="53" x="35" y="162.1406">KillGoblin</text><line style="stroke: #A80036; stroke-width: 1.5;" x1="7" x2="90" y1="172.583" y2="172.583"/><line style="stroke: #A80036; stroke-width: 1.5;" x1="7" x2="90" y1="180.583" y2="180.583"/><!--class DeliverGoods--><rect fill="#FEFECE" filter="url(#f12crn4n8ppy6f)" height="48" id="DeliverGoods" style="stroke: #A80036; stroke-width: 1.5;" width="107" x="126" y="140.583"/><ellipse cx="141" cy="156.583" fill="#ADD1B2" rx="11" ry="11" style="stroke: #A80036; stroke-width: 1.0;"/><path d="M139.5781,161.9424 Q137.7188,161.9424 136.625,160.5518 Q135.5313,159.1611 135.5313,156.1768 Q135.5313,153.6455 136.6953,151.9893 Q137.8594,150.333 139.8438,150.333 Q141.3125,150.333 141.7813,150.458 Q142.25,150.6611 142.25,150.6611 Q142.25,150.6611 142.25,150.5908 Q142.25,150.5205 142.8594,149.5986 L143.9063,153.2549 L142.5781,153.6611 Q142.1094,152.1143 141.4453,151.4502 Q140.7813,150.7861 139.7188,150.7861 Q139.3281,150.7861 138.5625,152.3174 Q137.7969,153.8486 137.7969,156.0986 Q137.7969,158.5674 138.4609,159.958 Q139.125,161.3486 139.6563,161.3486 Q140.7188,161.3486 141.4766,160.583 Q142.2344,159.8174 142.5781,158.1611 L143.9063,158.7549 Q143.5781,160.1611 142.6797,161.0518 Q141.7813,161.9424 139.5781,161.9424 Z "/><text fill="#000000" font-family="sans-serif" font-size="12" lengthAdjust="spacingAndGlyphs" textLength="75" x="155" y="162.1406">DeliverGoods</text><line style="stroke: #A80036; stroke-width: 1.5;" x1="127" x2="232" y1="172.583" y2="172.583"/><line style="stroke: #A80036; stroke-width: 1.5;" x1="127" x2="232" y1="180.583" y2="180.583"/><!--class SearchRing--><rect fill="#FEFECE" filter="url(#f12crn4n8ppy6f)" height="48" id="SearchRing" style="stroke: #A80036; stroke-width: 1.5;" width="97" x="412" y="140.583"/><ellipse cx="427" cy="156.583" fill="#ADD1B2" rx="11" ry="11" style="stroke: #A80036; stroke-width: 1.0;"/><path d="M425.5781,161.9424 Q423.7188,161.9424 422.625,160.5518 Q421.5313,159.1611 421.5313,156.1768 Q421.5313,153.6455 422.6953,151.9893 Q423.8594,150.333 425.8438,150.333 Q427.3125,150.333 427.7813,150.458 Q428.25,150.6611 428.25,150.6611 Q428.25,150.6611 428.25,150.5908 Q428.25,150.5205 428.8594,149.5986 L429.9063,153.2549 L428.5781,153.6611 Q428.1094,152.1143 427.4453,151.4502 Q426.7813,150.7861 425.7188,150.7861 Q425.3281,150.7861 424.5625,152.3174 Q423.7969,153.8486 423.7969,156.0986 Q423.7969,158.5674 424.4609,159.958 Q425.125,161.3486 425.6563,161.3486 Q426.7188,161.3486 427.4766,160.583 Q428.2344,159.8174 428.5781,158.1611 L429.9063,158.7549 Q429.5781,160.1611 428.6797,161.0518 Q427.7813,161.9424 425.5781,161.9424 Z "/><text fill="#000000" font-family="sans-serif" font-size="12" lengthAdjust="spacingAndGlyphs" textLength="65" x="441" y="162.1406">SearchRing</text><line style="stroke: #A80036; stroke-width: 1.5;" x1="413" x2="508" y1="172.583" y2="172.583"/><line style="stroke: #A80036; stroke-width: 1.5;" x1="413" x2="508" y1="180.583" y2="180.583"/><!--class KillGoblinFactory--><rect fill="#FEFECE" filter="url(#f12crn4n8ppy6f)" height="48" id="KillGoblinFactory" style="stroke: #A80036; stroke-width: 1.5;" width="124" x="19.5" y="32.583"/><ellipse cx="34.5" cy="48.583" fill="#ADD1B2" rx="11" ry="11" style="stroke: #A80036; stroke-width: 1.0;"/><path d="M33.0781,53.9424 Q31.2188,53.9424 30.125,52.5518 Q29.0313,51.1611 29.0313,48.1768 Q29.0313,45.6455 30.1953,43.9893 Q31.3594,42.333 33.3438,42.333 Q34.8125,42.333 35.2813,42.458 Q35.75,42.6611 35.75,42.6611 Q35.75,42.6611 35.75,42.5908 Q35.75,42.5205 36.3594,41.5986 L37.4063,45.2549 L36.0781,45.6611 Q35.6094,44.1143 34.9453,43.4502 Q34.2813,42.7861 33.2188,42.7861 Q32.8281,42.7861 32.0625,44.3174 Q31.2969,45.8486 31.2969,48.0986 Q31.2969,50.5674 31.9609,51.958 Q32.625,53.3486 33.1563,53.3486 Q34.2188,53.3486 34.9766,52.583 Q35.7344,51.8174 36.0781,50.1611 L37.4063,50.7549 Q37.0781,52.1611 36.1797,53.0518 Q35.2813,53.9424 33.0781,53.9424 Z "/><text fill="#000000" font-family="sans-serif" font-size="12" lengthAdjust="spacingAndGlyphs" textLength="92" x="48.5" y="54.1406">KillGoblinFactory</text><line style="stroke: #A80036; stroke-width: 1.5;" x1="20.5" x2="142.5" y1="64.583" y2="64.583"/><line style="stroke: #A80036; stroke-width: 1.5;" x1="20.5" x2="142.5" y1="72.583" y2="72.583"/><!--class DeliverGoodsFactory--><rect fill="#FEFECE" filter="url(#f12crn4n8ppy6f)" height="48" id="DeliverGoodsFactory" style="stroke: #A80036; stroke-width: 1.5;" width="146" x="194.5" y="32.583"/><ellipse cx="209.5" cy="48.583" fill="#ADD1B2" rx="11" ry="11" style="stroke: #A80036; stroke-width: 1.0;"/><path d="M208.0781,53.9424 Q206.2188,53.9424 205.125,52.5518 Q204.0313,51.1611 204.0313,48.1768 Q204.0313,45.6455 205.1953,43.9893 Q206.3594,42.333 208.3438,42.333 Q209.8125,42.333 210.2813,42.458 Q210.75,42.6611 210.75,42.6611 Q210.75,42.6611 210.75,42.5908 Q210.75,42.5205 211.3594,41.5986 L212.4063,45.2549 L211.0781,45.6611 Q210.6094,44.1143 209.9453,43.4502 Q209.2813,42.7861 208.2188,42.7861 Q207.8281,42.7861 207.0625,44.3174 Q206.2969,45.8486 206.2969,48.0986 Q206.2969,50.5674 206.9609,51.958 Q207.625,53.3486 208.1563,53.3486 Q209.2188,53.3486 209.9766,52.583 Q210.7344,51.8174 211.0781,50.1611 L212.4063,50.7549 Q212.0781,52.1611 211.1797,53.0518 Q210.2813,53.9424 208.0781,53.9424 Z "/><text fill="#000000" font-family="sans-serif" font-size="12" lengthAdjust="spacingAndGlyphs" textLength="114" x="223.5" y="54.1406">DeliverGoodsFactory</text><line style="stroke: #A80036; stroke-width: 1.5;" x1="195.5" x2="339.5" y1="64.583" y2="64.583"/><line style="stroke: #A80036; stroke-width: 1.5;" x1="195.5" x2="339.5" y1="72.583" y2="72.583"/><!--class SearchRingFactory--><rect fill="#FEFECE" filter="url(#f12crn4n8ppy6f)" height="48" id="SearchRingFactory" style="stroke: #A80036; stroke-width: 1.5;" width="136" x="383.5" y="32.583"/><ellipse cx="398.5" cy="48.583" fill="#ADD1B2" rx="11" ry="11" style="stroke: #A80036; stroke-width: 1.0;"/><path d="M397.0781,53.9424 Q395.2188,53.9424 394.125,52.5518 Q393.0313,51.1611 393.0313,48.1768 Q393.0313,45.6455 394.1953,43.9893 Q395.3594,42.333 397.3438,42.333 Q398.8125,42.333 399.2813,42.458 Q399.75,42.6611 399.75,42.6611 Q399.75,42.6611 399.75,42.5908 Q399.75,42.5205 400.3594,41.5986 L401.4063,45.2549 L400.0781,45.6611 Q399.6094,44.1143 398.9453,43.4502 Q398.2813,42.7861 397.2188,42.7861 Q396.8281,42.7861 396.0625,44.3174 Q395.2969,45.8486 395.2969,48.0986 Q395.2969,50.5674 395.9609,51.958 Q396.625,53.3486 397.1563,53.3486 Q398.2188,53.3486 398.9766,52.583 Q399.7344,51.8174 400.0781,50.1611 L401.4063,50.7549 Q401.0781,52.1611 400.1797,53.0518 Q399.2813,53.9424 397.0781,53.9424 Z "/><text fill="#000000" font-family="sans-serif" font-size="12" lengthAdjust="spacingAndGlyphs" textLength="104" x="412.5" y="54.1406">SearchRingFactory</text><line style="stroke: #A80036; stroke-width: 1.5;" x1="384.5" x2="518.5" y1="64.583" y2="64.583"/><line style="stroke: #A80036; stroke-width: 1.5;" x1="384.5" x2="518.5" y1="72.583" y2="72.583"/><!--link Quest to IQuest--><path d="M179.5,296.583 C179.5,308.1715 179.5,322.6124 179.5,336.1843 " fill="none" id="Quest-IQuest" style="stroke: #A80036; stroke-width: 1.0; stroke-dasharray: 7.0,7.0;"/><polygon fill="none" points="186.5,336.2615,179.5,356.2614,172.5,336.2614,186.5,336.2615" style="stroke: #A80036; stroke-width: 1.0;"/><!--link KillGoblin to Quest--><path d="M76.925,188.583 C93.8887,202.31 115.799,220.039 135.012,235.585 " fill="none" id="KillGoblin-Quest" style="stroke: #A80036; stroke-width: 1.0;"/><polygon fill="none" points="139.534,230.239,150.678,248.261,130.727,241.123,139.534,230.239" style="stroke: #A80036; stroke-width: 1.0;"/><!--link DeliverGoods to Quest--><path d="M179.5,188.583 C179.5,200.171 179.5,214.612 179.5,228.184 " fill="none" id="DeliverGoods-Quest" style="stroke: #A80036; stroke-width: 1.0;"/><polygon fill="none" points="186.5,228.261,179.5,248.261,172.5,228.261,186.5,228.261" style="stroke: #A80036; stroke-width: 1.0;"/><!--link SearchRing to Quest--><path d="M411.874,183.926 C361.258,203.019 282.314,232.799 230.746,252.252 " fill="none" id="SearchRing-Quest" style="stroke: #A80036; stroke-width: 1.0;"/><polygon fill="none" points="232.971,258.894,211.787,259.403,228.029,245.795,232.971,258.894" style="stroke: #A80036; stroke-width: 1.0;"/><!--link KillGoblinFactory to IQuestFactory--><path d="M133.793,80.583 C168.256,95.741 213.817,115.781 251.537,132.371 " fill="none" id="KillGoblinFactory-IQuestFactory" style="stroke: #A80036; stroke-width: 1.0; stroke-dasharray: 7.0,7.0;"/><polygon fill="none" points="254.404,125.985,269.893,140.445,248.767,138.8,254.404,125.985" style="stroke: #A80036; stroke-width: 1.0;"/><!--link DeliverGoodsFactory to IQuestFactory--><path d="M279.434,80.583 C285.733,92.723 293.657,107.994 300.985,122.117 " fill="none" id="DeliverGoodsFactory-IQuestFactory" style="stroke: #A80036; stroke-width: 1.0; stroke-dasharray: 7.0,7.0;"/><polygon fill="none" points="307.401,119.285,310.399,140.261,294.974,125.733,307.401,119.285" style="stroke: #A80036; stroke-width: 1.0;"/><!--link SearchRingFactory to IQuestFactory--><path d="M423.509,80.583 C406.888,94.241 385.445,111.861 366.594,127.351 " fill="none" id="SearchRingFactory-IQuestFactory" style="stroke: #A80036; stroke-width: 1.0; stroke-dasharray: 7.0,7.0;"/><polygon fill="none" points="370.778,132.972,350.882,140.261,361.89,122.156,370.778,132.972" style="stroke: #A80036; stroke-width: 1.0;"/><!--link KillGoblinFactory to KillGoblin--><path d="M74.3395,80.583 C69.3576,96.586 62.6819,118.029 57.3639,135.111 " fill="none" id="KillGoblinFactory-KillGoblin" style="stroke: #A80036; stroke-width: 1.0; stroke-dasharray: 7.0,7.0;"/><polygon fill="#A80036" points="55.7605,140.261,62.2562,132.8579,57.2476,135.4873,54.6182,130.4786,55.7605,140.261" style="stroke: #A80036; stroke-width: 1.0;"/><!--link DeliverGoodsFactory to DeliverGoods--><path d="M248.405,80.583 C234.891,96.862 216.703,118.77 202.407,135.991 " fill="none" id="DeliverGoodsFactory-DeliverGoods" style="stroke: #A80036; stroke-width: 1.0; stroke-dasharray: 7.0,7.0;"/><polygon fill="#A80036" points="198.861,140.261,207.6868,135.89,202.0542,136.4135,201.5307,130.7809,198.861,140.261" style="stroke: #A80036; stroke-width: 1.0;"/><!--link SearchRingFactory to SearchRing--><path d="M453.453,80.583 C454.812,96.586 456.632,118.029 458.083,135.111 " fill="none" id="SearchRingFactory-SearchRing" style="stroke: #A80036; stroke-width: 1.0; stroke-dasharray: 7.0,7.0;"/><polygon fill="#A80036" points="458.52,140.261,461.7444,130.9549,458.0971,135.2789,453.7731,131.6316,458.52,140.261" style="stroke: #A80036; stroke-width: 1.0;"/><!--
@startuml
title Factory class diagram
interface IQuest
interface IQuestFactory

abstract class Quest
class KillGoblin
class DeliverGoods
class SearchRing

class KillGoblinFactory
class DeliverGoodsFactory
class SearchRingFactory

Quest..|>IQuest
KillGoblin- -|> Quest
DeliverGoods - -|> Quest
SearchRing - -|> Quest

KillGoblinFactory ..|> IQuestFactory
DeliverGoodsFactory ..|> IQuestFactory
SearchRingFactory ..|> IQuestFactory

KillGoblinFactory ..> KillGoblin
DeliverGoodsFactory ..> DeliverGoods
SearchRingFactory ..> SearchRing



@enduml

PlantUML version 1.2018.12(Sun Oct 21 18:15:15 CST 2018)
(GPL source distribution)
Java Runtime: Java(TM) SE Runtime Environment
JVM: Java HotSpot(TM) 64-Bit Server VM
Java Version: 1.8.0_181-b13
Operating System: Windows 10
OS Version: 10.0
Default Encoding: GBK
Language: zh
Country: CN
--></g></svg>